<?xml version="1.0" standalone="no"?>
<!DOCTYPE svg PUBLIC "-//W3C//DTD SVG 20010904//EN"
 "http://www.w3.org/TR/2001/REC-SVG-20010904/DTD/svg10.dtd">
<svg version="1.0" xmlns="http://www.w3.org/2000/svg"
 width="1392.000000pt" height="1392.000000pt" viewBox="0 0 1392.000000 1392.000000"
 preserveAspectRatio="xMidYMid meet">
<metadata>
Created by potrace 1.14, written by Peter Selinger 2001-2017
</metadata>
<g transform="translate(0.000000,1392.000000) scale(0.100000,-0.100000)"
fill="#000000" stroke="none">
<path d="M6448 10765 c-2 -2 -51 -6 -108 -9 -58 -3 -130 -8 -160 -11 -30 -3
-84 -7 -120 -10 -36 -3 -81 -8 -100 -10 -19 -2 -60 -7 -90 -10 -68 -7 -199
-24 -227 -29 -11 -3 -44 -7 -73 -11 -51 -7 -67 -9 -120 -20 -14 -2 -41 -7 -60
-10 -19 -3 -80 -15 -135 -26 -55 -12 -109 -23 -120 -25 -47 -9 -62 -13 -105
-24 -25 -7 -52 -14 -60 -15 -40 -9 -179 -45 -210 -55 -19 -6 -44 -13 -56 -15
-51 -11 -386 -127 -459 -160 -16 -7 -59 -25 -95 -40 -106 -44 -318 -152 -418
-213 -51 -31 -101 -62 -110 -67 -9 -6 -50 -33 -90 -60 -42 -28 -76 -45 -80
-39 -14 20 -150 83 -221 103 -40 11 -105 23 -145 27 -79 7 -79 7 -86 5 -3 -1
-31 -3 -64 -6 -162 -10 -311 -82 -393 -189 -43 -56 -99 -163 -108 -206 -4 -19
-10 -39 -13 -44 -28 -48 -14 -380 19 -421 11 -15 3 -25 -71 -86 -200 -166
-369 -385 -456 -589 -70 -167 -94 -296 -89 -480 3 -127 6 -149 31 -247 27
-109 114 -300 161 -355 8 -9 12 -22 8 -28 -6 -9 -14 -42 -20 -80 -1 -8 -5 -26
-8 -40 -6 -25 -11 -60 -25 -175 -4 -33 -7 -148 -7 -255 1 -175 4 -227 21 -350
7 -50 33 -178 45 -225 6 -22 12 -47 14 -56 2 -9 22 -71 45 -139 45 -133 78
-210 141 -333 43 -85 42 -67 23 -242 -3 -27 -7 -79 -10 -115 -4 -63 -8 -117
-19 -250 -11 -133 -16 -207 -19 -270 -2 -36 -4 -65 -5 -65 -1 0 -4 -49 -7
-110 -2 -60 -6 -141 -9 -180 -4 -71 -13 -282 -20 -480 -3 -60 -7 -231 -10
-380 -4 -160 -10 -272 -16 -276 -19 -11 -31 -945 -16 -1209 17 -305 26 -607
33 -1185 2 -236 6 -474 7 -528 1 -53 -2 -97 -6 -97 -5 0 -5 -6 -1 -12 5 -7 8
-69 9 -138 1 -144 6 -165 45 -185 26 -13 585 -15 4718 -15 l4690 0 1 99 c1 54
4 108 6 120 2 11 7 85 10 163 4 79 9 175 11 213 3 39 6 603 8 1255 2 912 -1
1190 -10 1205 -8 13 -13 76 -14 180 -7 577 -23 1267 -35 1460 -2 39 -7 126
-10 195 -4 69 -9 157 -11 195 -3 39 -6 102 -8 140 -3 39 -5 70 -6 70 -1 0 -3
35 -6 78 -3 75 -2 80 29 125 62 89 171 290 168 307 -1 3 5 13 14 21 8 9 15 23
15 33 0 9 4 21 9 27 5 5 25 59 46 119 20 61 41 119 45 130 5 11 12 34 16 50 4
17 8 35 10 40 20 81 45 218 48 261 2 23 6 46 8 50 21 39 16 522 -7 634 -2 13
-7 42 -11 65 -3 22 -10 58 -15 80 -5 22 -12 51 -15 65 -2 14 -9 39 -15 56 -5
17 -11 40 -13 50 -3 10 -9 30 -14 44 -5 14 -10 27 -10 30 0 3 -6 19 -12 35 -7
17 -23 59 -36 95 -14 36 -34 80 -44 98 -11 18 -20 37 -20 42 0 34 -201 333
-291 432 -19 21 -42 61 -52 90 -28 79 -38 104 -81 187 -22 42 -54 106 -73 143
l-34 66 22 39 c61 107 116 231 129 288 1 6 7 18 12 29 6 10 12 33 15 50 2 17
8 43 12 57 10 29 8 252 -2 287 -4 12 -9 30 -11 40 -10 42 -57 132 -99 189 -48
65 -125 131 -188 164 -135 68 -342 83 -524 38 -3 -1 -8 -2 -12 -3 -50 -11
-190 -72 -209 -90 -6 -6 -26 -19 -45 -30 l-35 -18 -125 88 c-69 49 -134 95
-145 101 -389 249 -810 437 -1259 563 -114 32 -542 123 -630 134 -27 3 -61 8
-75 10 -14 3 -68 10 -120 16 -52 6 -110 13 -127 15 -30 4 -58 8 -178 20 -22 2
-83 7 -135 11 -52 3 -113 8 -135 11 -47 5 -902 13 -907 8z"/>
</g>
</svg>
